<?xml version="1.0" standalone="no"?>
<!DOCTYPE svg PUBLIC "-//W3C//DTD SVG 20010904//EN"
 "http://www.w3.org/TR/2001/REC-SVG-20010904/DTD/svg10.dtd">
<svg version="1.0" xmlns="http://www.w3.org/2000/svg"
 width="920.000000pt" height="383.000000pt" viewBox="0 0 920.000000 383.000000"
 preserveAspectRatio="xMidYMid meet">
<metadata>
Created by potrace 1.16, written by Peter Selinger 2001-2019
</metadata>
<g transform="translate(0.000000,383.000000) scale(0.100000,-0.100000)"
fill="#000000" stroke="none">
<path d="M1498 3063 l-808 -3 0 -840 0 -840 105 0 105 0 0 73 c1 47 6 79 15
91 13 17 15 81 15 398 0 366 -1 379 -20 395 -14 12 -20 30 -20 60 0 42 1 43
34 43 31 0 34 3 40 38 3 21 22 71 42 111 140 279 478 385 759 238 122 -65 248
-228 270 -349 7 -35 10 -38 41 -38 33 0 34 -1 34 -43 0 -30 -6 -48 -20 -60
-19 -16 -20 -29 -20 -401 0 -329 2 -387 15 -400 11 -11 15 -39 15 -112 l0 -98
28 27 c26 25 35 27 105 27 l77 0 0 845 c0 465 -1 844 -2 843 -2 -2 -366 -4
-810 -5z"/>
<path d="M1355 2793 c-75 -27 -144 -71 -197 -125 -45 -46 -100 -144 -114 -200
l-6 -28 462 0 462 0 -6 28 c-27 113 -136 241 -256 300 -70 34 -82 37 -185 39
-86 3 -121 -1 -160 -14z"/>
<path d="M1026 2324 c-3 -8 -6 -186 -6 -394 0 -323 2 -381 15 -394 11 -11 15
-39 15 -111 l0 -97 31 26 c30 26 33 26 185 26 l154 0 0 69 c0 49 4 72 15 81
13 11 15 65 13 409 l-3 396 -206 3 c-182 2 -207 0 -213 -14z"/>
<path d="M1557 2334 c-4 -4 -7 -184 -7 -399 0 -337 2 -394 15 -405 11 -9 15
-35 15 -108 l0 -96 28 27 c28 27 28 27 184 27 l156 0 -3 68 c-1 45 2 72 12 83
11 13 13 89 11 410 l-3 394 -201 3 c-110 1 -203 -1 -207 -4z"/>
<path d="M690 1258 c0 -55 25 -143 55 -194 104 -178 385 -344 691 -408 66 -14
77 -14 150 4 419 101 705 322 722 560 l5 70 -107 0 -106 0 0 -80 0 -81 -77 3
-78 3 -3 78 -3 77 -179 0 -180 0 0 -80 0 -80 -80 0 -80 0 0 80 0 80 -185 0
-185 0 0 -80 0 -80 -75 0 -75 0 0 80 0 80 -105 0 -105 0 0 -32z m941 -258 c23
-13 25 -46 3 -58 -14 -8 -14 -10 0 -21 23 -19 20 -68 -3 -81 -45 -24 -121 -5
-121 29 0 10 7 24 15 31 13 11 13 15 0 33 -19 28 -19 33 5 57 22 22 70 26 101
10z"/>
</g>
</svg>
